HIERARCHY
ROOT root
{
	OFFSET 0.000000 0.000000 0.000000
	CHANNELS 6 Xposition Yposition Zposition Zrotation Yrotation Xrotation
	JOINT lhip
	{
		OFFSET 0.058581 -0.082280 -0.017664
		CHANNELS 3 Zrotation Yrotation Xrotation
		JOINT lknee
		{
			OFFSET 0.043451 -0.386469 0.008037
			CHANNELS 3 Zrotation Yrotation Xrotation
			JOINT lankle
			{
				OFFSET -0.014790 -0.426874 -0.037428
				CHANNELS 3 Zrotation Yrotation Xrotation
				JOINT ltoe
				{
					OFFSET 0.041054 -0.060286 0.122042
					CHANNELS 3 Zrotation Yrotation Xrotation
					End Site
					{
						OFFSET 0.000000 0.000000 0.000000
					}
				}
			}
		}
	}
	JOINT rhip
	{
		OFFSET -0.060310 -0.090513 -0.013543
		CHANNELS 3 Zrotation Yrotation Xrotation
		JOINT rknee
		{
			OFFSET -0.043257 -0.383688 -0.004843
			CHANNELS 3 Zrotation Yrotation Xrotation
			JOINT rankle
			{
				OFFSET 0.019056 -0.420046 -0.034562
				CHANNELS 3 Zrotation Yrotation Xrotation
				JOINT rtoe
				{
					OFFSET -0.034840 -0.062106 0.130323
					CHANNELS 3 Zrotation Yrotation Xrotation
					End Site
					{
						OFFSET 0.000000 0.000000 0.000000
					}
				}
			}
		}
	}
	JOINT lowerback
	{
		OFFSET 0.004439 0.124404 -0.038385
		CHANNELS 3 Zrotation Yrotation Xrotation
		JOINT upperback
		{
			OFFSET 0.004488 0.137956 0.026820
			CHANNELS 3 Zrotation Yrotation Xrotation
			JOINT chest
			{
				OFFSET -0.002265 0.056032 0.002855
				CHANNELS 3 Zrotation Yrotation Xrotation
				JOINT lowerneck
				{
					OFFSET -0.013390 0.211636 -0.033468
					CHANNELS 3 Zrotation Yrotation Xrotation
					JOINT upperneck
					{
						OFFSET 0.010113 0.088937 0.050410
						CHANNELS 3 Zrotation Yrotation Xrotation
						End Site
						{
							OFFSET 0.000000 0.000000 0.000000
						}
					}
				}
				JOINT lclavicle
				{
					OFFSET 0.071702 0.114000 -0.018898
					CHANNELS 3 Zrotation Yrotation Xrotation
					JOINT lshoulder
					{
						OFFSET 0.122921 0.045205 -0.019046
						CHANNELS 3 Zrotation Yrotation Xrotation
						JOINT lelbow
						{
							OFFSET 0.255332 -0.015649 -0.022946
							CHANNELS 3 Zrotation Yrotation Xrotation
							JOINT lwrist
							{
								OFFSET 0.265709 0.012698 -0.007375
								CHANNELS 3 Zrotation Yrotation Xrotation
								End Site
								{
									OFFSET 0.000000 0.000000 0.000000
								}
							}
						}
					}
				}
				JOINT rclavicle
				{
					OFFSET -0.082954 0.112472 -0.023707
					CHANNELS 3 Zrotation Yrotation Xrotation
					JOINT rshoulder
					{
						OFFSET -0.113228 0.046853 -0.008472
						CHANNELS 3 Zrotation Yrotation Xrotation
						JOINT relbow
						{
							OFFSET -0.260127 -0.014369 -0.031269
							CHANNELS 3 Zrotation Yrotation Xrotation
							JOINT rwrist
							{
								OFFSET -0.269108 0.006794 -0.006027
								CHANNELS 3 Zrotation Yrotation Xrotation
								End Site
								{
									OFFSET 0.000000 0.000000 0.000000
								}
							}
						}
					}
				}
			}
		}
	}
}
MOTION
Frames: 7
Frame Time: 0.033333
-0.933737 0.296405 0.985306 -88.302080 -2.435738 90.292301 -2.924999 -0.834665 1.872956 -2.216929 -10.747996 4.846794 3.270891 9.233571 -12.704108 0.000000 -0.000000 0.000000 1.916576 -2.433000 -1.655857 0.096455 1.149066 12.395799 -2.649742 -7.442096 -15.791711 0.000000 -0.000000 0.000000 -0.172898 1.011671 6.013656 2.843509 -3.160659 4.242414 1.242634 -0.328864 -7.619093 -3.424259 -1.069978 -9.127015 0.086997 0.923516 3.695973 -26.987693 1.657823 -0.396614 -54.604193 -1.412603 16.319346 5.209874 -38.819424 7.116709 -2.697211 -9.724681 0.807780 28.969245 4.219001 0.286739 50.063675 1.327709 12.720568 -10.017535 21.896745 -5.749528 4.045357 8.905115 -1.650967 
-0.935694 0.295849 0.984667 -88.605460 -2.328553 90.531597 -2.860783 -0.713911 1.856244 -2.197752 -10.619387 4.711542 3.381263 9.313222 -12.930367 0.000000 -0.000000 0.000000 1.932929 -2.325653 -1.708002 0.185365 1.311372 12.312237 -2.634403 -7.388891 -15.968441 0.000000 -0.000000 0.000000 -0.124490 1.001919 6.060553 2.833387 -3.206137 4.177392 1.198045 -0.334440 -7.642426 -3.310819 -1.105990 -9.367394 0.118131 0.962580 3.669020 -27.165054 1.486405 -0.405136 -54.666997 -1.237933 16.378982 5.010365 -37.560355 7.246588 -3.011575 -9.534613 1.001839 28.905281 4.380459 0.141881 49.911879 1.649894 12.725804 -10.293140 22.293640 -5.976997 4.084659 8.888278 -1.720873 
-0.937292 0.295196 0.984151 -88.857111 -2.196313 90.755083 -2.781398 -0.580758 1.826434 -2.172897 -10.461968 4.570302 3.478914 9.366706 -13.118417 0.000000 -0.000000 0.000000 1.962360 -2.252232 -1.732080 0.277419 1.438822 12.146116 -2.615467 -7.307813 -16.084615 0.000000 -0.000000 0.000000 -0.026955 1.023383 6.135999 2.802597 -3.219116 4.114708 1.143550 -0.321617 -7.642846 -3.214512 -1.163729 -9.627951 0.146868 0.970124 3.630518 -27.375854 1.337161 -0.430142 -54.730007 -1.081642 16.364181 4.921119 -36.226248 7.210838 -3.322797 -9.296829 1.162333 28.842349 4.532081 0.014244 49.797436 1.938302 12.739016 -10.557226 22.706903 -6.173514 4.157861 8.886468 -1.752996 
-0.938618 0.294482 0.983806 -89.036203 -2.033637 90.975683 -2.644249 -0.468682 1.746496 -2.179297 -10.304875 4.474851 3.527567 9.368215 -13.271259 0.000000 -0.000000 0.000000 2.049189 -2.188188 -1.743393 0.337424 1.584302 11.964293 -2.626850 -7.226128 -16.135621 0.000000 -0.000000 0.000000 0.109309 1.059870 6.246635 2.764965 -3.197959 4.011667 1.089695 -0.291122 -7.619486 -3.141495 -1.235563 -9.833105 0.159149 0.935164 3.549766 -27.581434 1.186191 -0.466960 -54.799402 -0.944691 16.346117 4.877452 -34.856712 7.103621 -3.549099 -9.062896 1.286619 28.772209 4.681332 -0.071201 49.726352 2.193600 12.770754 -10.760731 23.037322 -6.321980 4.183186 8.909085 -1.804456 
-0.939773 0.293702 0.983440 -89.106712 -1.896686 91.202931 -2.497469 -0.424612 1.612578 -2.231464 -10.190100 4.448594 3.527550 9.307908 -13.454144 0.000000 -0.000000 0.000000 2.116421 -2.156758 -1.721850 0.374278 1.655122 11.667943 -2.587650 -7.179518 -16.176650 0.000000 -0.000000 0.000000 0.190217 1.090519 6.257858 2.733905 -3.179828 3.995190 1.064980 -0.302188 -7.521809 -3.067321 -1.216570 -10.034141 0.153377 0.861906 3.446266 -27.712250 1.067217 -0.512250 -54.924353 -0.878610 16.282324 4.881651 -33.528242 6.970538 -3.790679 -8.876038 1.389106 28.739398 4.889108 -0.012460 49.627137 2.501318 12.825934 -10.898337 23.300046 -6.434442 4.195533 8.925700 -1.862345 
-0.940674 0.292806 0.982981 -89.125719 -1.784584 91.457179 -2.405116 -0.476429 1.407079 -2.275852 -10.176563 4.531801 3.572076 9.321816 -13.725797 0.000000 -0.000000 0.000000 2.121282 -2.119998 -1.753403 0.454498 1.704549 11.414455 -2.501603 -7.156823 -16.241259 0.000000 -0.000000 0.000000 0.239948 1.133858 6.252366 2.706344 -3.168986 4.049101 1.045672 -0.300090 -7.460905 -3.006233 -1.169464 -10.258315 0.165624 0.775362 3.362086 -27.787646 1.013358 -0.551486 -55.033911 -0.804390 16.185569 4.890979 -32.484394 6.773593 -4.088049 -8.668858 1.431373 28.735300 5.100666 0.055041 49.531942 2.780491 12.876668 -10.947583 23.462744 -6.496362 4.242175 8.916108 -1.830391 
-0.941312 0.291788 0.982447 -89.225250 -1.649860 91.754628 -2.338119 -0.548952 1.098073 -2.316900 -10.213301 4.757453 3.705955 9.461618 -14.096814 0.000000 -0.000000 0.000000 2.132788 -2.052508 -1.970983 0.562413 1.800398 11.385759 -2.414602 -7.139359 -16.369877 0.000000 -0.000000 0.000000 0.336407 1.248097 6.392332 2.684347 -3.098654 4.057061 1.006942 -0.216694 -7.536422 -2.999813 -1.203298 -10.520556 0.197215 0.738849 3.314715 -27.857896 0.954211 -0.610230 -55.047513 -0.628432 16.171936 4.806890 -31.725279 6.457680 -4.229370 -8.477329 1.329827 28.736991 5.225894 -0.012273 49.457815 2.857891 12.937504 -10.879458 23.613462 -6.524798 4.313447 8.901813 -1.758461 
